<svg width="60" height="72" viewBox="0 0 60 72" fill="none" xmlns="http://www.w3.org/2000/svg">
<path d="M30.11 44.34L34.87 51.74L37.37 48.23L43.26 58.47L45.08 56.37L46.44 59.62C41.8275 64.4405 36.1438 68.1063 29.85 70.32C27.057 69.3301 24.3756 68.0498 21.85 66.5L29.91 53.97L34.66 59.2L29.76 51.56L20.65 65.73C18.3889 64.2425 16.2759 62.5414 14.34 60.65L18.11 53.97L21.2 58.27L30.11 44.34ZM43.89 21.34C43.9397 21.3319 43.9903 21.3319 44.04 21.34C44.6 21.43 44.97 21.61 44.97 21.79C44.97 21.97 44.97 21.91 44.65 21.79C44.5144 21.7262 44.369 21.6857 44.22 21.67C43.99 21.67 43.83 21.59 43.83 21.46C43.83 21.33 43.85 21.39 43.89 21.39V21.34ZM15.82 21.34C15.87 21.34 15.88 21.34 15.88 21.44C15.88 21.54 15.72 21.65 15.5 21.65C15.348 21.6667 15.1995 21.7072 15.06 21.77C14.76 21.93 14.74 21.93 14.74 21.77C14.74 21.61 15.11 21.41 15.67 21.32C15.7235 21.3348 15.7742 21.3585 15.82 21.39V21.34ZM43.19 21.1C43.24 21.1 43.25 21.15 43.25 21.23C43.25 21.31 42.93 21.47 42.63 21.52C42.4512 21.5176 42.2733 21.4941 42.1 21.45C41.9171 21.3967 41.7228 21.3967 41.54 21.45C41.28 21.51 41.22 21.45 41.31 21.37C41.4456 21.2849 41.5976 21.2294 41.7561 21.207C41.9146 21.1846 42.0761 21.1958 42.23 21.24C42.4396 21.3182 42.6704 21.3182 42.88 21.24C42.9756 21.1878 43.0814 21.1571 43.19 21.15V21.1ZM16.52 21.1C16.628 21.103 16.734 21.1304 16.83 21.18C17.0436 21.2547 17.2763 21.2547 17.49 21.18C17.6422 21.1354 17.8021 21.1239 17.9591 21.1464C18.116 21.1688 18.2664 21.2246 18.4 21.31C18.5 21.42 18.4 21.45 18.18 21.39C17.9971 21.3367 17.8029 21.3367 17.62 21.39C17.4433 21.4342 17.2621 21.4576 17.08 21.46C16.78 21.41 16.46 21.26 16.46 21.17C16.46 21.08 16.52 21.15 16.52 21.15V21.1ZM42.82 20.75C42.99 20.75 43.09 20.75 43.09 20.88C43.09 21.01 43.03 20.88 42.92 20.88C42.7636 20.8669 42.6064 20.8669 42.45 20.88C42.3507 20.8974 42.2492 20.8974 42.15 20.88C42.15 20.8 42.29 20.73 42.61 20.7L42.82 20.75ZM16.89 20.75H17.1C17.42 20.75 17.6 20.85 17.56 20.93C17.4608 20.9474 17.3592 20.9474 17.26 20.93C17.1069 20.9172 16.9531 20.9172 16.8 20.93C16.69 20.93 16.62 20.93 16.62 20.93C16.62 20.93 16.72 20.8 16.89 20.8V20.75ZM44.26 19.4C44.41 19.4 44.36 19.61 44.12 20.09C43.97 20.38 43.8 20.76 43.73 20.94C43.6 21.27 43.56 21.36 43.49 21.29C43.42 21.22 43.49 21 43.67 20.54C43.8088 20.1482 44.0079 19.7805 44.26 19.45V19.4ZM15.45 19.4C15.7067 19.7457 15.906 20.1307 16.04 20.54C16.23 21 16.28 21.21 16.22 21.29C16.16 21.37 16.11 21.29 15.98 20.94C15.8667 20.6493 15.7365 20.3655 15.59 20.09C15.35 19.66 15.31 19.45 15.45 19.45V19.4ZM29.81 16.24L56.46 42.86C55.0088 47.6654 52.7167 52.1753 49.69 56.18L29.86 36.35L10.03 56.18C6.99637 52.1782 4.70046 47.6676 3.25 42.86L29.81 16.24ZM40.52 9.41998H40.63C41.5101 9.55815 42.3061 10.0222 42.86 10.72C43.3353 11.1552 43.7797 11.623 44.19 12.12C47.58 13.05 48.46 18.12 48.47 18.71C49.77 19.48 51.47 20.88 51.07 20.88C51.0296 20.8632 50.9924 20.8395 50.96 20.81C50.5177 20.4438 50.0498 20.1096 49.56 19.81C49.8877 20.0753 50.1654 20.397 50.38 20.76C50.4639 20.9119 50.512 21.0809 50.5207 21.2542C50.5293 21.4275 50.4983 21.6005 50.43 21.76C50.16 22.32 49.35 22.4 48.61 22.31C47.5343 21.8614 46.6278 21.0844 46.02 20.09C45.8 19.82 45.36 19.34 44.94 18.89C44.84 18.89 44.89 19.13 44.59 19.1C44.0379 18.9307 43.5341 18.6325 43.12 18.23C42.6 17.81 42.47 17.68 42.47 17.57C42.47 17.46 42.47 17.47 42.47 17.47H42.59H42.18C41.6048 17.4634 41.0368 17.341 40.51 17.11C39.9712 16.7977 39.5205 16.3539 39.2 15.82C38.9741 15.4085 38.8898 14.9341 38.96 14.47C39.0509 14.0155 39.2416 13.5869 39.5182 13.2151C39.7949 12.8433 40.1508 12.5376 40.56 12.32C40.2504 12.0155 39.9723 11.6804 39.73 11.32C39.5643 11.3456 39.3957 11.3456 39.23 11.32C39.1 11.32 38.77 11.26 38.48 11.23C37.99 11.16 37.93 11.15 37.93 11.06C37.93 10.97 37.93 10.95 38.09 10.95H38.67C38.2197 10.7976 37.7385 10.7597 37.27 10.84C36.89 11 36.89 11 36.9 10.84C36.91 10.68 37.07 10.58 37.77 10.36C38.1325 10.2148 38.5124 10.1173 38.9 10.07H38.99C39.04 9.91001 39.42 9.66996 39.57 9.57996C39.7563 9.49707 39.9507 9.43347 40.15 9.39001C40.33 9.44001 40.44 9.41998 40.52 9.41998ZM19 9.41998H19.11H19.47C19.6661 9.46341 19.8571 9.52709 20.04 9.60999C20.19 9.69999 20.58 9.93998 20.62 10.1H20.72C21.1041 10.1488 21.4805 10.2463 21.84 10.39C22.55 10.61 22.69 10.69 22.71 10.87C22.73 11.05 22.71 11.04 22.34 10.87C21.8714 10.7902 21.3904 10.8279 20.94 10.98H21.52C21.67 10.98 21.68 10.98 21.68 11.09C21.68 11.2 21.62 11.19 21.14 11.26C20.85 11.26 20.51 11.32 20.38 11.35C20.2143 11.3754 20.0457 11.3754 19.88 11.35C19.6408 11.7128 19.3625 12.0481 19.05 12.35C19.4594 12.5686 19.8158 12.8745 20.094 13.246C20.3722 13.6175 20.5654 14.0456 20.66 14.5C20.7252 14.9641 20.6411 15.4368 20.42 15.85C20.0933 16.3824 19.6398 16.8257 19.1 17.14C18.5736 17.3723 18.0054 17.4948 17.43 17.5H17.03H17.14C17.14 17.5 17.14 17.5 17.14 17.6C17.14 17.7 17.01 17.84 16.49 18.26C16.0779 18.66 15.5779 18.9579 15.03 19.13C14.72 19.13 14.77 18.93 14.67 18.92C14.26 19.37 13.81 19.85 13.6 20.12C12.9864 21.1134 12.0772 21.8897 11 22.34C10.26 22.43 9.46 22.34 9.19 21.79C9.114 21.6343 9.07449 21.4633 9.07449 21.29C9.07449 21.1167 9.114 20.9457 9.19 20.79C9.40499 20.4243 9.68648 20.1021 10.02 19.84C9.52575 20.1377 9.05444 20.472 8.60999 20.84C8.57934 20.8716 8.54166 20.8956 8.5 20.91C8.12 20.91 9.79998 19.51 11.1 18.74C11.1 18.19 12 13.08 15.38 12.15C15.793 11.6554 16.2373 11.1879 16.71 10.75C17.2842 10.0206 18.1199 9.54352 19.04 9.41998H19ZM0 0V29.86C0.00159027 39.1096 2.87256 48.131 8.21707 55.6803C13.5616 63.2296 21.1164 68.9351 29.84 72.01C38.5662 68.938 46.1241 63.2336 51.4707 55.6838C56.8173 48.1341 59.6891 39.1112 59.69 29.86V0H0Z" fill="white"/>
</svg>
